<mxfile host="app.diagrams.net" modified="2023-02-05T14:58:12.516Z" agent="5.0 (Macintosh)" etag="qwGiPwfhylH-KKe_kwVy" version="20.8.16" type="github">
  <diagram name="Page-1" id="wEhAWRxn6kxKtwwkxt7E">
    <mxGraphModel dx="1194" dy="686" grid="1" gridSize="10" guides="1" tooltips="1" connect="1" arrows="1" fold="1" page="1" pageScale="1" pageWidth="850" pageHeight="1100" math="0" shadow="0">
      <root>
        <mxCell id="0" />
        <mxCell id="1" parent="0" />
        <mxCell id="B5f4TTTQ7Ssf4rraxJyn-1" value="" style="whiteSpace=wrap;html=1;aspect=fixed;" vertex="1" parent="1">
          <mxGeometry x="380" y="320" width="80" height="80" as="geometry" />
        </mxCell>
        <mxCell id="B5f4TTTQ7Ssf4rraxJyn-3" style="edgeStyle=orthogonalEdgeStyle;rounded=0;orthogonalLoop=1;jettySize=auto;html=1;entryX=0.5;entryY=0;entryDx=0;entryDy=0;" edge="1" parent="1" source="B5f4TTTQ7Ssf4rraxJyn-2" target="B5f4TTTQ7Ssf4rraxJyn-1">
          <mxGeometry relative="1" as="geometry" />
        </mxCell>
        <mxCell id="B5f4TTTQ7Ssf4rraxJyn-2" value="Actor" style="shape=umlActor;verticalLabelPosition=bottom;verticalAlign=top;html=1;outlineConnect=0;" vertex="1" parent="1">
          <mxGeometry x="250" y="230" width="30" height="60" as="geometry" />
        </mxCell>
      </root>
    </mxGraphModel>
  </diagram>
</mxfile>
